<svg version="1.1" viewBox="0.0 0.0 100.0 100.0" fill="none" stroke="none" stroke-linecap="square" stroke-miterlimit="10" xmlns:xlink="http://www.w3.org/1999/xlink" xmlns="http://www.w3.org/2000/svg"><clipPath id="p.0"><path d="m0 0l100.0 0l0 100.0l-100.0 0l0 -100.0z" clip-rule="nonzero"/></clipPath><g clip-path="url(#p.0)"><path fill="#000000" fill-opacity="0.0" d="m0 0l100.0 0l0 100.0l-100.0 0z" fill-rule="evenodd"/><path fill="#000000" fill-opacity="0.0" d="m4.2464676 47.67824l91.37008 0l0 40.94488l-91.37008 0z" fill-rule="evenodd"/><path fill="#434343" d="m26.59534 87.630684l19.015625 -38.26563l8.75 0l18.906254 38.26563l-9.609379 0l-11.328125 -22.6875q-0.59375 -1.2031288 -1.09375 -2.2656288q-0.484375 -1.0625 -0.921875 -2.0625q-0.4375 -1.015625 -0.796875 -2.03125q-0.34375 -1.015625 -0.734375 -2.109375l2.125 -0.046875q-0.375 1.140625 -0.78125 2.21875q-0.40625 1.0625 -0.875 2.09375q-0.46875 1.03125 -0.96875 2.109375q-0.484375 1.0625 -1.03125 2.1562538l-11.25 22.625l-9.40625 0zm8.796875 -6.78125l3.0625 -6.984375l22.90625 0l1.25 6.984375l-27.21875 0z" fill-rule="nonzero"/><path fill="#000000" fill-opacity="0.0" d="m95.75353 51.77381l-91.37008 0l0 -40.94488l91.37008 0z" fill-rule="evenodd"/><path fill="#434343" d="m73.40466 11.821373l-19.015629 38.265625l-8.75 0l-18.906254 -38.265625l9.609379 0l11.328125 22.6875q0.59375 1.203125 1.09375 2.265625q0.484375 1.0625 0.921875 2.0625q0.4375 1.015625 0.796875 2.03125q0.34375 1.015625 0.734375 2.109375l-2.125 0.046875q0.375 -1.140625 0.78125 -2.21875q0.40625 -1.0625 0.875 -2.09375q0.46875 -1.03125 0.96875 -2.109375q0.484375 -1.0625 1.03125 -2.15625l11.25 -22.625l9.406254 0zm-8.796875 6.78125l-3.0625038 6.984375l-22.90625 0l-1.25 -6.984375l27.218754 0z" fill-rule="nonzero"/><path fill="#ffffff" d="m35.07137 9.0519085l15.133858 31.212599l15.133862 -31.212599z" fill-rule="evenodd"/></g></svg>